<?xml version="1.0" encoding="utf-8"?>
<!-- Generator: Adobe Illustrator 24.0.1, SVG Export Plug-In . SVG Version: 6.00 Build 0)  -->
<svg version="1.1" id="Layer_1" xmlns="http://www.w3.org/2000/svg" xmlns:xlink="http://www.w3.org/1999/xlink" x="0px" y="0px"
	 viewBox="0 0 136 56" style="enable-background:new 0 0 136 56;" xml:space="preserve">
<style type="text/css">
	.st0{fill:#FFFFFF;}
</style>
<g>
	<path class="st0" d="M47.2,20.6C47.2,20.6,47.2,20.6,47.2,20.6c-2.5-0.2-4.3,1.3-4.3,3.9V32h-4V16.9h4.2c0.1,0.7-0.1,1.5-0.3,2.2
		c0,0,0-0.1,0-0.1c0.2-0.4,0.5-0.8,0.8-1.1l0,0c0,0,0.1-0.1,0.1-0.1c0.3-0.2,0.6-0.5,0.9-0.6c0,0,0,0,0,0c0,0,0.1,0,0.1,0
		c0,0,0.1,0,0.1,0v0c1-0.4,2.2-0.5,3.6-0.1L48,20.7c-0.1,0-0.1,0-0.2,0c0,0-0.1,0-0.1,0c-0.1,0-0.1,0-0.2,0c0,0,0,0-0.1,0
		C47.4,20.6,47.3,20.6,47.2,20.6z M75.8,16.9h-4V32h4V16.9z M75.8,11.4h-4v3h4V11.4z M55.5,11.4h-4v3h4V11.4z M119.7,11.4h-4V32h4
		V11.4z M68.1,20.4v-3.5h-4.9v-5.6h-4v14.2c0,2.1,0.3,3.5,1.1,4.5c1,1.4,2.8,2.2,5.2,2.2c0.8,0,2.1-0.1,2.6-0.3l-0.8-3.4
		c-0.3,0.1-0.9,0.1-1.5,0.1c-1,0-1.6-0.3-2-0.7c-0.3-0.4-0.5-1-0.5-1.9v-5.6H68.1z M111.5,16.9V32h-4v-0.9c-1.2,0.7-2.5,1.1-4,1.1
		c-4.3,0-7.8-3.5-7.8-7.8c0-4.3,3.5-7.8,7.8-7.8c1.5,0,2.8,0.4,4,1.1v-0.9L111.5,16.9L111.5,16.9z M107.5,24.5
		c0-2.2-1.8-4.1-4.1-4.1c-2.2,0-4.1,1.8-4.1,4.1c0,2.2,1.8,4.1,4.1,4.1C105.7,28.5,107.5,26.7,107.5,24.5z M90.4,26.8
		c-0.7,1-1.9,1.7-3.3,1.7c-2.2,0-4.1-1.8-4.1-4.1c0-2.2,1.8-4.1,4.1-4.1c1.3,0,2.5,0.7,3.3,1.7l3-2.2c-1.4-1.9-3.7-3.2-6.3-3.2
		c-4.3,0-7.8,3.5-7.8,7.8c0,4.3,3.5,7.8,7.8,7.8c2.6,0,4.9-1.3,6.3-3.2L90.4,26.8z M55.5,16.9h-4V32h4V16.9z M32.1,25.5
		c-1.2,1.6-3.1,2.7-5.3,2.7c-3.6,0-6.5-2.9-6.5-6.5c0-3.6,2.9-6.5,6.5-6.5c2.2,0,4.1,1.1,5.3,2.7l3.2-2.4c-1.9-2.6-5-4.3-8.5-4.3
		c-5.8,0-10.5,4.7-10.5,10.5c0,5.8,4.7,10.5,10.5,10.5c3.5,0,6.6-1.7,8.5-4.4L32.1,25.5z"/>
	<path class="st0" d="M70.2,40c-0.8,0-1.3,0.3-1.3,0.9c0,0.5,0.4,0.7,1.1,0.8l0.6,0.1c1.2,0.2,1.8,0.6,1.8,1.5c0,1-0.9,1.7-2.4,1.7
		c-0.7,0-1.6-0.2-2.3-0.7l0.4-0.6c0.4,0.3,1,0.6,1.9,0.6c0.9,0,1.5-0.3,1.5-0.9c0-0.4-0.4-0.7-1.1-0.8l-0.6-0.1
		c-1.2-0.2-1.8-0.7-1.8-1.5c0-1,0.9-1.6,2.2-1.6c0.9,0,1.6,0.2,2.1,0.6L72,40.5C71.7,40.3,71,40,70.2,40z M79.7,42.1
		c0,1.6-1.2,2.8-2.9,2.8c-1.6,0-2.8-1.2-2.8-2.8c0-1.6,1.2-2.8,2.8-2.8C78.5,39.2,79.7,40.5,79.7,42.1z M74.9,42.1c0,1.2,0.9,2,2,2
		c1.1,0,2-0.9,2-2s-0.9-2-2-2C75.7,40,74.9,40.9,74.9,42.1z M83,40.1v4.7h-0.9v-4.7h-1.2v-0.8h1.2v-0.9c0-1.2,0.5-2,1.8-2
		c0.6,0,1.1,0.2,1.5,0.4l-0.3,0.7c-0.3-0.2-0.7-0.3-1.1-0.3c-0.7,0-1,0.4-1,1.2v0.9h2.2v0.8H83z M88.1,40.1v2.7
		c0,0.8,0.5,1.2,1.1,1.2c0.4,0,0.8-0.2,1.1-0.4l0.4,0.6c-0.4,0.3-0.9,0.5-1.6,0.5c-1.2,0-1.9-0.6-1.9-2v-2.8h-1.2v-0.8h1.2v-1.7h0.9
		v1.7h2.3v0.8H88.1z M99.9,39.3h0.9l-2,5.4h-1l-1.6-4.5l-1.6,4.5h-1l-2-5.4h0.9l1.6,4.5l1.6-4.5h1l1.6,4.5L99.9,39.3z M106.7,44.8
		V44c-0.4,0.6-1.1,0.9-2,0.9c-1.5,0-2.7-1.2-2.7-2.8c0-1.6,1.2-2.8,2.7-2.8c0.9,0,1.5,0.4,2,0.9v-0.8h0.9v5.4H106.7z M102.9,42.1
		c0,1.1,0.8,2,1.9,2c1.1,0,1.9-0.9,1.9-2c0-1.1-0.8-2-1.9-2C103.7,40,102.9,40.9,102.9,42.1z M113.4,39.4l-0.2,0.8
		c-0.3-0.1-0.6-0.2-0.9-0.2c-0.8,0-1.5,0.7-1.5,1.7v3h-0.9v-5.4h0.8v0.8c0.4-0.6,0.9-0.9,1.6-0.9C112.8,39.2,113.1,39.3,113.4,39.4z
		 M119.7,42c0,0.1,0,0.2,0,0.3h-4.3c0.1,1.2,0.9,1.8,1.9,1.8c0.7,0,1.3-0.3,1.7-0.7l0.5,0.6c-0.7,0.6-1.4,0.8-2.2,0.8
		c-1.6,0-2.7-1.1-2.7-2.8c0-1.7,1.2-2.8,2.7-2.8C118.6,39.2,119.6,40.4,119.7,42z M115.3,41.7h3.5c-0.1-1-0.8-1.7-1.7-1.7
		C116.1,40,115.5,40.7,115.3,41.7z"/>
</g>
</svg>
