<?xml version="1.0" encoding="utf-8"?>
<!-- Generator: Adobe Illustrator 24.0.1, SVG Export Plug-In . SVG Version: 6.00 Build 0)  -->
<svg version="1.1" id="Layer_1" xmlns="http://www.w3.org/2000/svg" xmlns:xlink="http://www.w3.org/1999/xlink" x="0px" y="0px"
	 viewBox="0 0 136 56" style="enable-background:new 0 0 136 56;" xml:space="preserve">
<style type="text/css">
	.st0{fill:#FFFFFF;}
</style>
<g>
	<path class="st0" d="M27.3,14.3c-1.8-6.2-9-8.2-15.4-6.2c-6.4,2-9.6,8.3-7.8,14.4c1.2,3.9,5.3,7.1,9.7,8.1l-1.5,9.9L4.2,29.7H0.7
		v17.5h3.8V36.1l8.4,12.6l4.5-1.4l0.5-16.4c1.1-0.1,2.2-0.4,3.1-0.9C28,26.4,29.1,20.5,27.3,14.3z M17,27.3c-4.7,0-9.5-3.8-9.5-8.3
		s3-8.7,7.7-8.7s8.4,3.5,9.4,8.7C25.4,23.4,21.7,27.3,17,27.3z"/>
	<path class="st0" d="M21.3,28.1c-1.1,3.1-3.9,5.4-6.7,5.4s-4.5-2.4-3.6-5.4c0.8-2.9,2.4-4.7,5.2-5.4C19.6,21.8,22.3,25.3,21.3,28.1
		z"/>
	<path class="st0" d="M45.1,21.4h2.2v13.1h-1.9l-7.2-9.4v9.4H36V21.4h2.1l6.9,9.1V21.4z"/>
	<path class="st0" d="M56,23.3c-2.6,0-4.4,2.1-4.4,4.7s1.8,4.7,4.4,4.7s4.4-2.1,4.4-4.7C60.4,25.4,58.6,23.3,56,23.3z M56,34.8
		c-4,0-6.8-3.1-6.8-6.8c0-3.7,2.8-6.8,6.8-6.8c4,0,6.8,3.1,6.8,6.8C62.8,31.7,60,34.8,56,34.8z"/>
	<path class="st0" d="M73,21.4h2.5l-5.4,13.2h-2l-5.4-13.2h2.5l3.9,10.1L73,21.4z"/>
	<path class="st0" d="M80.5,24.1l-2.2,5.3h4.5L80.5,24.1z M87.3,34.6h-2.4l-1.3-3.2h-6.1l-1.3,3.2h-2.3l5.7-13.2h2.1L87.3,34.6z"/>
	<path class="st0" d="M97.1,30.7c0-1.1-0.9-1.8-2.7-1.8h-3.6v3.6h3.8C96.1,32.5,97.1,31.9,97.1,30.7z M96.3,25.2
		c0-1.1-0.8-1.7-2.3-1.7h-3.3V27h3.1C95.4,27,96.3,26.4,96.3,25.2z M98.6,24.8c0,1.6-0.9,2.4-1.8,2.9c1.5,0.5,2.6,1.4,2.6,3.2
		c0,2.4-1.9,3.6-4.8,3.6h-6V21.4h5.8C97,21.4,98.6,22.7,98.6,24.8z"/>
	<path class="st0" d="M106.4,24.1l-2.2,5.3h4.5L106.4,24.1z M113.2,34.6h-2.4l-1.3-3.2h-6.1l-1.3,3.2h-2.3l5.7-13.2h2.1L113.2,34.6z
		"/>
	<path class="st0" d="M119.5,26.9c2.7,0.7,4.2,1.7,4.2,3.9c0,2.5-1.9,3.9-4.6,3.9c-2,0-3.9-0.7-5.4-2.1L115,31
		c1.2,1.1,2.5,1.7,4.1,1.7c1.4,0,2.3-0.7,2.3-1.7c0-1-0.5-1.5-2.9-2c-2.8-0.7-4.3-1.5-4.3-3.9c0-2.3,1.8-3.8,4.4-3.8
		c1.9,0,3.4,0.6,4.7,1.6l-1.2,1.8c-1.2-0.9-2.3-1.3-3.5-1.3c-1.3,0-2.1,0.7-2.1,1.6C116.5,25.9,117.1,26.4,119.5,26.9z"/>
	<path class="st0" d="M135.2,23.5h-7.3v3.4h6.5V29h-6.5v3.5h7.4v2.1h-9.7V21.4h9.6V23.5z"/>
</g>
</svg>
