<?xml version="1.0" encoding="utf-8"?>
<!-- Generator: Adobe Illustrator 24.0.1, SVG Export Plug-In . SVG Version: 6.00 Build 0)  -->
<svg version="1.1" id="Layer_1" xmlns="http://www.w3.org/2000/svg" xmlns:xlink="http://www.w3.org/1999/xlink" x="0px" y="0px"
	 viewBox="0 0 136 56" style="enable-background:new 0 0 136 56;" xml:space="preserve">
<style type="text/css">
	.st0{fill:#FFFFFF;}
</style>
<g>
	<path class="st0" d="M49.3,49.2c-0.1-0.3-0.3-0.9-0.4-1.3c-0.1-1,0.4-1.6,0.8-1.8c0.5-0.1,0.7,0.1,0.9,0.7c0.3,0.9,0.3,2.1,0.2,3.9
		c-0.1,2.4-1.3,5.2-4.2,5.2c-2.5-0.1-3.7-1.7-3.8-4.2c-0.1-1.2,0-2.4,0.5-4.1c0.3-0.9,0.5-1.2,1.3-1.4c0.6-0.1,0.6,0.5,0.4,1.3
		c-0.3,1.7-0.5,2.6-0.3,4.5c0.1,2.1,1.1,2.9,2.1,2.9c1.6,0,2.3-1.3,2.5-3.2C49.6,50.4,49.4,49.7,49.3,49.2z M82.6,51.2
		c0.6,0,0.8,0.7,0.6,1.2c-0.1,0.4-0.7,0.9-1.5,1.1C81.6,53,81.5,51.2,82.6,51.2z M71.3,52.2c0-0.5-0.3-0.9-0.6-0.9
		c-0.3,0-0.9,0.3-0.9,1.2c0,0.7,0.3,1.1,0.4,1.2C71,53.5,71.3,52.8,71.3,52.2z M62.3,46.3c0-0.5-0.4-0.8-0.9-0.8
		c-0.5,0-1.1,0.6-1,1.3c0,0.5,0.3,0.9,0.9,0.9C61.9,47.7,62.3,47,62.3,46.3z M67,48c-0.1-0.8-0.2-1.2-0.7-1.1
		c-0.6,0-0.8,1.9-0.7,3.8c0.1,1.2,0.3,1.4,0.4,1.4C66.3,52,67.1,49.8,67,48z M86.2,51.1c-0.4,1.5-1.4,3.7-3.1,3.7
		c-0.4,0-1-0.1-1-0.5c0-0.4,2.5-0.5,2.5-2.4c0-0.7-0.7-1.7-1.6-1.7c-1.3,0-2.6,1.4-2.6,3.4c0,1.8,1.1,2.3,2.2,2.3
		c1.9,0,3.1-1.6,3.7-2.9c0.3,0.9,0.5,2.9,1.2,2.9c0.3,0,0.5-0.1,0.8-0.9c0.9-1.9,1.7-4.2,2.9-4.2c0.4,0,0.2,0.8,1.2,0.8
		c0.5,0,0.8-0.4,0.8-0.9c0-0.7-0.6-1.2-1.5-1.2c-2.7,0-3.3,4.1-3.7,4.1c-0.7,0-0.5-3.3-1-3.3C86.5,50.3,86.2,50.8,86.2,51.1z
		 M63,54.5c0.4,0,1.2-0.1,1.8-1.1c-0.3-0.7-0.6-2.3-0.6-2.8c-0.2-2.8,0.9-5.5,2.1-5.5c0.9-0.1,1.6,0.8,1.6,2.1
		c0.2,3.5-0.9,5-1.5,6.2c0.1,0.5,0.9,1.3,1.7,1.3c0.3,0,0.6-0.1,0.7-0.3c-0.1-0.2-0.1-0.5-0.1-0.8c0-2,1.3-3.7,2.4-3.7
		c0.9,0,1.4,1.2,1.4,2c0,0.9-0.8,1.7-1.9,2.4c0.2,0.2,0.6,0.3,0.9,0.3c1.6,0,2.5-2,3.2-3.8c0.1-0.3,0.3-0.8,0.7-0.8
		c0.7,0,1,4.6,2.1,4.6c0.5,0,0.9-1,0.9-1.8c0-0.6-0.2-0.6-0.2-1.5c0-0.9,0.5-1.7,1.2-1.7c0.4,0,0.6,0.4,0.6,0.9
		c0,1.9-1.3,5.3-3.3,5.3c-1.5,0-1.4-2.6-1.9-2.6c-0.6,0-1.4,2.6-4.2,2.6c-0.5,0-1-0.2-1.4-0.7c-0.7,0.5-1.3,0.7-1.9,0.7
		c-1.1,0-1.5-1.1-2-1.1c-0.5,0-1.1,1.1-2.8,1.1c-1.4,0-1.6-1.9-2.1-1.9c-0.4,0-1.1,1.9-1.8,1.9c-1.2,0-1.5-3.2-2.5-3.2
		c-0.8,0-3.5,3.3-4.2,3.2c-0.3,0-0.4-0.2-0.4-0.5c0-0.4,0.4-1.5,0.5-2c0.2-0.9,0.4-1.8,0.6-2.2c0.1-0.3,0.4-0.5,0.7-0.5
		c0.1,0,0.2,0.3,0.2,0.5c0.1,0.7,0.3,1.4,0.6,1.4c0.4,0,1.7-2.6,2.5-2.6c1,0,1.1,4.1,2.4,4.1c0.4,0,0.8-0.5,1-1.2
		c0-1.1,0.3-2.6,1.2-2.6c0.6,0,0.9,1.4,0.5,2.6C61.5,54.2,62.4,54.5,63,54.5z"/>
	<path class="st0" d="M83.2,9.1c-0.2,0-0.5,0-0.7-0.3c-0.1-0.3-0.1-0.7-0.4-0.9c0.3,0.1,0.5,0.1,0.8,0.1c0.7,0,1.4-0.5,1.9-0.5
		c0.3,0,0.4,0.2,0.4,0.4C85.2,8.5,83.8,9.1,83.2,9.1z M83.5,10.8c1.6,0,3.1-1.3,3.1-2.4c0-0.5-0.2-1-0.9-1c0.1,0.1,0.2,0.2,0.2,0.5
		c0,0.8-1.3,1.8-2.7,1.8c-0.5,0-0.7,0.4-0.7,0.5C82.5,10.7,82.9,10.8,83.5,10.8z M83.4,11.5c0.2,1.5,2.4,3.4,3,3.4
		c0.4,0,0.6-1.9,0.6-3.4c0-0.8,0-1.5-0.4-1.7C85.8,11.3,84,11.5,83.4,11.5z"/>
	<path class="st0" d="M48.9,21.2c0.5,0,0.4-3.2,1.3-3.2c0.2,0,0.3,0.2,0.3,0.4c0,0.7-0.4,1.8-0.4,2.4c0,0.3,0.1,0.4,0.2,0.4
		c0.4,0,1-3.5,1.6-3.5c0.2,0,0.3,0.2,0.3,0.4c0,0.7-0.9,2.9-0.9,3.5c0,0.1,0,0.2,0.1,0.2c0.4,0,1.2-1.7,1.4-2.5
		c0.1-0.4,0.3-0.7,0.5-0.7c0.2,0,0.3,0.2,0.3,0.5c0,0.8-0.8,2.8-1.4,4.1c-0.5,1-1.3,2.5-1.3,3.3c0,0.4,0.1,0.8,0.7,1.4
		c-1-0.1-1.4-0.2-1.7-0.9c-1.6,3.3,3,3,1.4,5.9c-0.3-0.5-2.6-1.1-2.6-4.1c0-2.6,2.3-4.2,2.3-5.3c0-0.2-0.1-0.4-0.3-0.6
		C50,22.4,50,22,49.6,22c-0.3,0-0.6,0.7-0.3,1.3c0.1,0.2,0.2,0.3,0.2,0.5c0,0.4-0.7,1.6-1.2,1.6c-0.5,0-0.8-1.2-0.8-3.1
		c0-1.7,0.4-3.4,0.9-3.4c0.1,0,0.2,0.1,0.2,0.2c0,0.2-0.1,0.6-0.1,1.3C48.6,21.1,48.7,21.2,48.9,21.2z"/>
	<path class="st0" d="M52.8,25.7c0.6,0,1.2-0.5,1.2-1.5v-1.6c0-0.6,0-1.3,0.4-1.8c0,0.2,0,0.4,0,0.6c0,1.3,0.7,2.2,0.7,3.5
		c0,0.5-0.1,0.7-0.5,0.7c-0.4,0-0.3-0.3-0.4-0.3c-0.1,0-0.2,0.2-0.2,0.4c0,0.3,0.2,0.8,0.9,0.8c0.6,0,1-0.5,1-1.1
		c0-1.4-1.1-2.9-1.1-4.4c0-0.6,0.2-1.1,0.3-1.4c0,3.1,2.6,5.3,2.6,6.6c0,0.3-0.2,0.5-0.5,0.5c-0.4,0-0.5-0.3-0.5-0.5
		c0-0.1,0-0.1-0.1-0.1c-0.1,0-0.4,0.3-0.4,0.7c0,0.5,0.4,1.1,1.2,1.1c0.9,0,1.3-0.7,1.3-1.4c0-1.6-3.1-4.1-3.1-6.7
		c0-0.4,0.1-1.2,0.4-1.7c-2,1.3-2.7,3-2.7,4.6c0,1.3,0,2-0.7,2c-0.4,0-0.4-0.3-0.6-0.3c-0.1,0-0.1,0.3-0.1,0.4
		C52,25.3,52.4,25.7,52.8,25.7z"/>
	<path class="st0" d="M76,8.3c0.2-0.1,1.1,0.1,2.2-0.5c0.1-0.1,0.3-0.1,0.4-0.1c0.5,0,0.4,0.6,0.9,0.6c0.4,0,0.9-0.3,1.2-0.3
		c0.5,0,1.1,1.4,1.1,2.1c0,0.8-1.2,1.3-2.6,1.3c-2,0-3.3-1.8-3.3-2.9C75.9,8.4,76,8.4,76,8.3z M79.4,10.3c0.7,0,1.2-0.3,1.2-0.5
		c0-0.1-0.1-0.1-0.3-0.1c-0.2,0-0.6,0-1.4-0.1c-0.6-0.1-1.1-0.4-1.3-0.4c-0.1,0-0.1,0-0.1,0.1C77.5,9.7,78.2,10.3,79.4,10.3z"/>
	<path class="st0" d="M53.1,31.5c-0.5,0.1-1.3,0.9-1.3,2.2c0,1.5,1.6,3.8,4.3,3.8c2.2,0,2.8-1.6,2.8-2.6c0-2.3-1.4-4-3.3-4
		c-1,0-1.9,0.7-1.9,1.8c0,1,0.8,2.5,2.6,2.5c0.9,0,1.4-0.6,1.4-1.3c0-0.7-0.6-1.6-1.5-1.6c-0.3,0-0.5,0.2-0.5,0.5
		c0,0.4,0.5,0.7,1.1,0.7c0.2,0,0.3,0,0.3-0.1c0,0,0,0.1,0,0.2c0,0.4-0.3,0.6-0.9,0.6c-0.8,0-1.5-0.6-1.5-1.5c0-0.6,0.5-1,1.2-1
		c1.4,0,2.2,1.2,2.2,2.4c0,1.1-0.6,1.7-1.8,1.7C53.8,35.9,52.6,33.7,53.1,31.5z"/>
	<path class="st0" d="M70.6,40.5c0.7,0,0.7-0.1,0.9-0.1c0.2,0,0.2,0.1,0.2,0.2c0,0.3-0.8,0.8-2.1,0.8c-0.8,0-1.3-0.4-1.4-0.9
		c-0.8,0.5-1.9,0.9-3.1,0.9c-3.1,0-3.9-1.4-4.9-1.8c-0.8-0.3-1.9,0.3-3.5-1.5c0.2,0,0.5,0.1,0.7,0.1c1.4,0,2.2-0.7,2.2-1.8
		c0-0.1,0-0.3,0-0.4c0.4,0.2,1.4,0.9,1.6,2.2c0,0.2,0.7,0.3,1.1,0.3c0.6,0,1.3-0.2,1.4-1.1c1.8-0.2,3.1-1.2,3.3-2.6
		c0.7,0.2,1.4,0.8,1.6,1.1c0.3-0.1,0.6-0.1,0.9-0.1c0.5,0,1,0.1,1.7,0.3c0-0.2,0.1-0.4,0.4-0.4c0.5,0,0.3,0.5,0.5,0.8
		c0.1,0.2,0.5,0.2,0.5,0.6c0,0.3-0.2,0.4-0.4,0.4c-0.1,0-0.1,0-0.2,0c-0.3,0.1-0.3,2.3-1.6,2.3c-1,0-1.8-0.8-2.2-1.8
		c-0.1-0.3-0.3-0.5-0.6-0.5c-0.2,0-0.4,0-0.7,0.4c-0.8,0.9-2.2,1.7-3.9,1.7c-0.5,0-0.9,0-1,0c-0.1,0-0.1,0-0.1,0
		c0,0.1,0.5,0.5,1.7,0.5c2.7,0,3.4-1.5,3.8-1.5c0.1,0,0.2,0,0.4,0.2C68.4,40.1,69.7,40.5,70.6,40.5z M69.4,37.4
		c0,0.3,0.3,0.6,0.6,0.6c0.3,0,0.6-0.3,0.6-0.6c0-0.3-0.3-0.6-0.6-0.6C69.7,36.8,69.4,37.1,69.4,37.4z"/>
	<path class="st0" d="M81.6,29.7c-0.2,0-0.4,0.2-0.4,0.6c0,0.5,0.4,0.8,0.6,0.8c0.1,0.1,0.3,0.1,0.4,0.1c0.4,0,0.8-0.1,0.8-0.5
		C82.9,30.3,82.2,29.7,81.6,29.7z M79.9,30.7c-0.3,0-2.1,2.4-3.3,2.4c-0.3,0-0.5-0.5-0.5-0.9c0-0.2,0.1-0.4,0.6-0.5
		c2.6-0.6,2.1-2.6,4.3-2.6c1.2,0,2.6,0.8,2.6,2.8c0,2-2.9,4.6-3.3,4.6c-0.4,0-0.7-0.5-0.7-0.8c0-0.1,0-0.2,0.4-0.4
		c1.5-0.6,2.3-1.9,2.3-2.6c0-0.2-0.1-0.3-0.3-0.3c-0.3,0-1.4,2.6-2.6,2.6c-0.9,0-1.7-0.8-1.7-1.2c0-0.6,2.5-1.8,2.5-2.6
		C80.2,30.7,80,30.7,79.9,30.7z"/>
	<path class="st0" d="M49.6,10.5c0,0-0.4,0.3-1,0.3c-0.7,0-1.2-0.5-1.2-1.2c0-0.5,0.2-1,0.8-1.2c0,0.1,0,0.2,0,0.3
		C48.2,9.6,48.7,10.3,49.6,10.5z M52.8,13.5c-0.3,0.4-0.7,1.1-0.7,1.8c0,0.8,0.5,1.5,1.3,1.5c0.8,0,1.1-0.6,1.1-1.3
		C54.5,14.4,53.6,13.7,52.8,13.5z M47.8,14.1c0,0,0,0.1,0,0.2c0,0.1,0.2,0.3,0.3,0.3c0.1,0,0.2,0,0.3,0c0.4,0,0.8,0.3,1.4,0.3
		c0.4,0,0.8-0.1,1.3-0.4c1.1-0.6,1.5-1.9,1.5-2.2c0-0.3-0.2-0.3-0.4-0.5c-0.2-0.3-0.1-0.5-0.2-0.6C51.7,11,51.5,11,51.2,11
		c-0.1,0-0.2,0-0.3,0c-0.5,0-1.1,0.1-1.8,0.5C47.8,12.3,48,13.7,47.8,14.1z M51.4,12.2c0.1,0.1,0.4,0.3,0.4,0.4
		c0,0.2-0.1,0.5-0.4,0.5c-0.5,0-1-0.8-1-1.3c0-0.3,0.2-0.3,0.4-0.3c0.1,0,0.2,0,0.2,0.1C51.2,11.6,51.2,11.9,51.4,12.2z M49.9,14.1
		c-0.5,0-1.1-0.6-1.1-1.2c0-0.3,0.2-0.7,0.4-0.7c0.1,0,0.1,0,0.1,0.2c0.1,0.8,0.6,1.2,1,1.4c0,0,0.1,0,0.1,0.1
		C50.5,13.9,50.2,14.1,49.9,14.1z M51.2,10.2c0.1-0.2,0.1-0.6,0.1-0.9c0-0.7-0.3-1.9-1.4-1.9c-0.6,0-1,0.5-1,1
		C49,9.7,50.2,10.2,51.2,10.2z M47.3,16.3c0,1.2,0.4,1.7,1,1.7c0.5,0,1.2-0.4,1.9-1c-0.6,0.1-1.1,0.2-1.5,0.2
		C48.2,17.3,47.7,17,47.3,16.3z M47.8,15c0,0.1,0,0.2,0,0.2c0,0.7,0.4,1.1,0.9,1.1c0.4,0,0.8-0.2,1.2-0.7c-0.2,0-0.4,0-0.6,0
		C48.8,15.6,48.2,15.5,47.8,15z M51.6,14.7c-0.4,0.1-1.1,0.5-1.1,1.3c0,0.6,0.4,0.9,1,0.9c0.3,0,0.5-0.1,0.6-0.2
		c-0.4-0.4-0.6-0.9-0.6-1.3C51.5,15.1,51.5,14.9,51.6,14.7z M52.1,10.5c0,0.3,0.3,0.6,0.6,0.6c0.3,0,0.6-0.3,0.6-0.6
		c0-0.3-0.3-0.6-0.6-0.6C52.4,9.9,52.1,10.2,52.1,10.5z M52.9,11.9c0,0.3,0.3,0.6,0.6,0.6c0.3,0,0.6-0.3,0.6-0.6
		c0-0.3-0.3-0.6-0.6-0.6C53.2,11.3,52.9,11.6,52.9,11.9z"/>
	<path class="st0" d="M76.8,19.5c0-0.3,0.3-0.6,0.6-0.6c0.3,0,0.6,0.3,0.6,0.6c0,0.4-0.3,0.6-0.6,0.6C77.1,20.1,76.8,19.8,76.8,19.5
		z M71.5,14.7c0,0.3,0.3,0.6,0.6,0.6c0.3,0,0.6-0.3,0.6-0.6c0-0.3-0.3-0.6-0.6-0.6C71.7,14.1,71.5,14.4,71.5,14.7z M70.9,16.9
		c0,0.5,0.4,0.9,0.9,0.9c0.5,0,0.9-0.4,0.9-0.9c0-0.5-0.4-0.9-0.9-0.9C71.3,16,70.9,16.4,70.9,16.9z M72.9,15.9
		c0,0.5,0.4,0.9,0.9,0.9c0.5,0,0.9-0.4,0.9-0.9c0-0.5-0.4-0.9-0.9-0.9C73.3,15,72.9,15.4,72.9,15.9z M72.9,13.9
		c0,0.3,0.3,0.6,0.6,0.6c0.3,0,0.6-0.3,0.6-0.6c0-0.3-0.3-0.6-0.6-0.6C73.2,13.3,72.9,13.6,72.9,13.9z M75.7,12.4
		c0,0.3,0.3,0.6,0.6,0.6c0.3,0,0.6-0.3,0.6-0.6c0-0.3-0.3-0.6-0.6-0.6C76,11.9,75.7,12.1,75.7,12.4z M74.6,14.3c0,0.5,0.4,1,1,1
		c0.5,0,1-0.4,1-1c0-0.5-0.4-1-1-1C75,13.3,74.6,13.8,74.6,14.3z M73,17.9c0,0.3,0.3,0.6,0.6,0.6c0.3,0,0.6-0.3,0.6-0.6
		s-0.3-0.6-0.6-0.6C73.3,17.3,73,17.6,73,17.9z M75,16.7c0,0.3,0.3,0.6,0.6,0.6c0.3,0,0.6-0.3,0.6-0.6c0-0.3-0.3-0.6-0.6-0.6
		C75.3,16.1,75,16.4,75,16.7z M74.4,18.9c0,0.6,0.5,1.1,1.1,1.1c0.6,0,1.1-0.5,1.1-1.1c0-0.6-0.5-1.1-1.1-1.1
		C74.9,17.8,74.4,18.3,74.4,18.9z M76.6,17.6c0,0.4,0.3,0.7,0.7,0.7c0.4,0,0.7-0.3,0.7-0.7c0-0.4-0.3-0.7-0.7-0.7
		C77,16.8,76.6,17.2,76.6,17.6z M76.6,15.6c0,0.4,0.3,0.6,0.6,0.6c0.4,0,0.6-0.3,0.6-0.6c0-0.4-0.3-0.6-0.6-0.6
		C76.9,15,76.6,15.3,76.6,15.6z"/>
	<path class="st0" d="M78.2,35.8c-0.4,0.3-1.3,1-2.9,1c-0.8,0-1.2-0.3-1.3-0.3c-0.2,0-0.3,0.2-0.5,0.4c-0.4,0.4-0.8,1.2-0.8,2.1
		c0,0.6,0.5,1.2,1.4,1.2c2.9,0,5-1.8,5-3.3C79,36.1,78.5,35.8,78.2,35.8z M77.4,35.6c0.1-0.1,0.2-0.3,0.2-0.4v-0.4
		c0-0.4-0.7-0.7-1.6-0.7c-1.1,0-1.7,0.5-1.7,0.7v0.7c0,0.3,0.7,0.6,1.5,0.6C76.4,36.1,77,36,77.4,35.6z M77.2,37.2
		c0.1,0,0.2,0,0.2,0.3c0,0.3-0.2,0.8-0.7,1.1c-0.4,0.3-0.9,0.5-1.7,0.5c0.1-0.4,0.2-0.8,0.2-1.1c0-0.1,0-0.2,0-0.4h0.2
		C76.6,37.6,77.1,37.2,77.2,37.2z"/>
	<path class="st0" d="M71.4,18.4c0.2,1.3,1.9,0.6,1.9,2.2c0,0.2-0.1,0.6-0.1,0.9c0,0.3,0,0.6,0.3,0.6c0.3,0,0.3-0.2,0.3-0.4
		c0-0.2-0.1-0.6-0.1-0.7c0-0.5,0.4-0.7,0.6-0.7c0.6,0,1,0.6,1.9,0.6c-0.2,1-2.2,0.7-2.2,1.8c0,0.5,0.5,0.7,0.9,0.7
		c0.3,0,0.4,0,0.4-0.3c0-0.2,0-0.3,0-0.4c0-0.1,0-0.1,0.1-0.1c0.3,0,2,1.3,2,1.6c0,0.4-1.7,0.7-2.3,0.7c-0.2,0-0.2-0.1-0.2-0.2
		c0-0.1,0.3-0.4,0.3-0.6c0-0.1-0.2-0.2-0.8-0.2c-0.3,0-0.5,0-0.5,0.3c0,0.4,0.7,0.9,0.7,1.3c0,0.3-0.2,0.5-0.7,0.5
		c-0.4,0-1-0.3-1-0.9c0-0.4,0.4-0.9,0.4-1.1c0-0.1-0.1-0.2-0.2-0.2c-0.6,0-0.7,1.5-2.7,1.7c0.3-0.3,0.6-0.6,0.6-1.3
		c0-0.3-0.1-0.6-0.1-0.9c0-0.5,0.2-0.7,0.5-0.7c0.6,0,0.8,0.8,1.2,0.8c0.2,0,0.4-0.2,0.4-0.5c0-1.2-2.2-1-2.2-2.6
		C70.8,19.7,71,19.1,71.4,18.4z M78.7,22.9c0,0.4,0.1,0.8,0.5,0.8c0.3,0,0.6-0.5,0.6-1c0-0.6-0.1-1.1-0.1-1.3c0-0.1,0-0.2,0.1-0.2
		c0.2,0,0.4,0.6,0.7,0.6c0.3,0,0.7-0.5,0.9-0.5c0,0,0.1,0.1,0.1,0.1c0,0.2-0.4,0.7-0.4,0.9c0,0.2,0.9,0.2,0.9,0.4
		c0,0.2-0.9,0.2-1.4,0.4c-0.4,0.2-0.7,0.4-0.7,0.7c0,0.3,0.3,0.4,0.7,0.4c1,0,1.7-0.6,2-0.6c0,0,0.1,0,0.1,0.1
		c0,0.2-0.5,0.7-0.5,0.9c0,0.3,1,0.6,0.9,0.7c0,0-0.1,0.1-0.2,0.1c-0.2,0-0.4,0-0.6,0c-0.1,0-0.2,0-0.3,0.1c-0.1,0.1,0,0.9-0.2,0.9
		c-0.2,0-0.7-1.8-1.9-1.8c-0.2,0-0.3,0.1-0.3,0.4c0,0.6,0.6,1.3,1.2,1.7c0.3,0.2,0.7,0.3,0.7,0.4c0,0.2-1,0-1,0.3
		c0,0.3,0.1,0.7,0.1,0.9c0,0.1,0,0.2-0.1,0.2c-0.2,0-0.6-0.8-0.8-0.8c-0.2,0-0.6,0.5-0.8,0.5c0,0-0.1,0-0.1-0.1
		c0-0.4,0.6-1.2,0.6-1.9c0-0.4,0-1.2-0.5-1.2c-0.4,0-0.8,0.6-1,1.2c-0.1,0.3,0,1.6-0.3,1.6c-0.2,0-0.2-0.9-0.5-0.9
		c-0.2,0-0.7,0.4-0.9,0.4c0,0-0.1,0-0.1,0c0-0.2,0.4-0.8,0.4-0.9c0-0.2-1-0.3-1-0.4c0-0.1,0.4-0.2,0.8-0.2c0.8-0.1,1.9-0.7,1.9-1.5
		c0-0.9-0.9-1.3-1.4-1.6c-0.3-0.2-0.6-0.3-0.6-0.5c0-0.1,0.4-0.1,0.5-0.1c0.2,0,0.5,0,0.5-0.2c0-0.1,0-0.4,0-0.6
		c0-0.2,0-0.3,0.1-0.3c0.2,0,0.6,0.8,0.7,0.8c0.2,0,0.6-0.6,0.8-0.6c0.1,0,0.1,0,0.1,0.2C79,21.7,78.7,22.3,78.7,22.9z"/>
	<path class="st0" d="M71.8,27.1c0.7,0.1,0.9,0.3,0.9,0.5c0,0.3-0.3,0.4-0.6,0.4c-0.2,0-0.5,0-0.7,0c-0.3,0-0.7,0.1-1,0.4
		c0.2,0,0.5,0.2,0.5,0.5c0,0.9-2.5,0.2-2.5,2.4c0,1.2,1.3,2.5,3.2,2.5c1,0,1.6-0.3,1.6-0.7c0-0.3-0.5-0.1-0.5-0.3
		c0-0.1,0.2-0.3,0.2-0.5c0-0.1-0.1-0.2-0.2-0.2c-0.3,0-0.8,0.4-1.9,0.4c-0.8,0-1.6-0.5-1.6-1.1c0-0.1,0.1-0.2,0.2-0.2
		c0.1,0,0.2,0.1,0.3,0.1c0.1,0,0.1-0.1,0.1-0.2c0-0.2,0-0.6,0.3-0.6c0.3,0,0.8,1.1,3,1.1c0.7,0,2.1-0.1,2.6-0.6
		c0,1.7-1.3,3.9-4.1,3.9c-2.9,0-4.4-2.3-4.4-4.4c0-2.4,1.9-4.5,4.5-4.5c0.7,0,1.2,0.2,1.2,0.5C72.9,26.9,71.9,26.6,71.8,27.1z
		 M76.5,27.9c0.1,0.2,0.2,0.3,0.2,0.5c0,0.4-0.3,0.8-0.3,1.3c0,0.5,0.4,0.9,1,0.9c0.6,0,1.1-0.5,1.1-1.1
		C78.4,28.7,77.7,28,76.5,27.9z M71.5,28.9c0.2,0.2,0.2,0.3,0.2,0.5c0,0.2-0.1,0.5-0.1,0.7c0,0.4,0.3,0.7,0.7,0.7
		c0.4,0,0.7-0.3,0.7-0.7C72.9,29.5,72.3,28.9,71.5,28.9z M73.5,26.3c1.6,0.3,2.5,1.5,2.5,2.7c0,0.8-0.5,1.5-1.4,1.5
		c-0.8,0-1.3-0.5-1.3-1.4c0-0.6,0.5-1.3,0.5-2C73.8,26.8,73.7,26.6,73.5,26.3z M74.3,28.4c0,0.2,0.2,0.4,0.4,0.4
		c0.2,0,0.4-0.2,0.4-0.5c0-0.3-0.3-0.8-0.6-0.8c-0.1,0-0.1,0.2-0.1,0.4C74.4,28,74.3,28.2,74.3,28.4z"/>
	<path class="st0" d="M57.4,12.5c0.5,0,1.1-2.8,1.1-3.3c0-0.1,0-0.2-0.2-0.2c-0.5,0-1.1,2.7-1.1,3.3C57.2,12.4,57.2,12.5,57.4,12.5z
		 M61.1,13.4c0.4,0,0.8-1.5,0.8-2.4c0-0.2,0-0.4-0.1-0.4c-0.3,0-0.9,1.5-0.9,2.4C61,13.2,61,13.4,61.1,13.4z M58.6,12
		c0.2,0,0.4-0.2,0.8-0.6c0-0.2,0-0.4,0-0.6c0-0.3-0.1-0.6-0.3-0.6c-0.5,0-0.7,1.2-0.7,1.6C58.4,11.9,58.5,12,58.6,12z M60.7,11.4
		c0-0.3-0.1-0.3-0.1-0.3c-0.2,0-0.3,0.2-0.6,0.6c0,0.6,0.1,0.8,0.3,0.8C60.5,12.5,60.7,11.9,60.7,11.4z M61.9,9.6
		c1,0,1.5,0.9,1.5,1.9c0,0.4-0.1,1.1-0.3,1.1s-0.2-0.4-0.2-0.7c0-0.4-0.1-0.5-0.2-0.5c-0.3,0-0.4,0.6-0.4,1.2c0,0.4,0.1,0.8,0.3,0.8
		c0.2,0,0.3-0.1,0.4-0.2c-0.1,0.7-0.6,1.3-1.3,1.3c-1.3,0-1.9-1.6-2-2.5c-0.8,0.9-1.6,1.5-2.9,1.5c-1.3,0-1.8-0.9-1.8-1.8
		c0-0.3,0.1-0.9,0.4-0.9c0.4,0,0,1.3,0.8,1.3c0.2,0,0.5-0.2,0.7-0.7c0.1-0.3,0.2-0.6,0.2-0.9c0-0.4-0.1-0.7-0.4-0.7
		c-0.3,0-0.6,0.2-0.7,0.3c0.4-1.1,1.3-1.7,2.2-1.7c1.2,0,1.9,1.1,1.9,2.3c0,0.2,0,0.4,0,0.5C60.4,10.2,61.1,9.6,61.9,9.6z"/>
	<path class="st0" d="M59,13.7c-0.7,0-0.7,0.8-0.7,2.4c-0.5-1.1-1.3-2.2-2.3-2.2c-0.6,0-0.9,0.4-0.9,1.2c0,0.2,0,0.4,0,0.5
		c0.1-0.3,0.3-0.4,0.6-0.4c0.7,0,1.5,0.5,2,1.2c-0.6-0.1-1.2-0.2-1.7-0.2c-0.3,0-0.6,0-0.8,0.1c-0.4,0.2-1,0.9-1,1.9
		c0,0.2,0,0.3,0,0.5c0.5-1.2,2-1.7,2.9-1.7c0.2,0,0.3,0,0.4,0c-0.5,0.4-0.6,1.2-0.6,1.7c0,0.2-0.1,0.3-0.3,0.3
		c0,0.5,0.4,1.3,0.4,1.6c0,0.1-0.1,0.3-0.2,0.3c0,0.7,0.7,1.2,0.7,1.6c0,0.1,0,0.2-0.1,0.2c0,0.3,0.8,0.7,0.9,1
		c0.1,0.3,0.3,0.3,0.3,0.3c0.3,0,0.7-0.3,0.7-0.6c0-0.1-0.1-0.2-0.1-0.2c-0.3-0.2-0.4-0.7-0.6-1c-0.1,0-0.2,0-0.3-0.2
		c-0.1-0.3-0.1-0.9-0.2-1.3c-0.2,0-0.3-0.1-0.3-0.5c0-0.2,0.1-1,0.1-1.3c-0.1,0-0.2-0.1-0.2-0.2c0-0.5,0.5-0.9,0.6-1.5
		c0.9,0.6,1.1,1.3,1.1,1.9c0,0.3,0,0.6-0.1,0.9c0.6-0.3,1.6-0.8,1.6-1.8c0-0.6-0.3-1.2-2-1.4c0.5-0.2,1.2-0.3,1.8-0.3
		c1,0,1.5,0.3,1.7,1c0.2-0.3,0.4-0.7,0.4-1c0-0.8-0.6-1.2-1.4-1.2c-0.9,0-1.8,0.5-2.7,1.1c0.4-0.8,0.7-1.3,1.2-1.3
		c0.1,0,0.2,0,0.2,0C60.1,14.4,59.4,13.7,59,13.7z"/>
	<path class="st0" d="M84.9,24.8c0.8,0,1.4,1,1.4,2.2c0,1.2-0.6,2.6-1.6,3.5c0-2.1-2.5-1.4-2.5-2.9c0-0.6,0.5-1.1,1-1.1
		c0.5,0,0.9,0.1,1.2,0.4c-0.3-0.3-0.4-0.6-0.4-1C83.8,25.3,84.2,24.8,84.9,24.8z"/>
	<path class="st0" d="M71.2,10.2c0.4,0.4,0.8,0.6,1.2,0.6c0.2,0,0.4,0,0.5,0c0.1,0,0.2,0.1,0.2,0.2c0,0.2-0.2,0.4-0.3,0.6
		c0.2,0.1,0.4,0.1,0.6,0.1c0.9,0,1.9-0.6,1.9-1.9c0.2,0.2,0.3,0.8,0.3,1c0,1.7-1.2,2.3-2.4,2.3c-0.7,0-1.1-0.2-1.2-0.2
		c-0.3,0-0.3,0.6-0.5,0.6c-0.4-0.1-0.7-0.8-0.7-1.7C70.8,11.1,70.9,10.6,71.2,10.2z M73.5,9.1c-0.1-0.2-0.6-0.3-0.8-0.3
		c-0.7,0-1.1,0.5-1.2,0.9c-0.1-0.2-0.1-0.3-0.1-0.5c0-0.7,0.5-1.5,1.6-1.5c1,0,1.4,0.5,1.5,0.5c0.2,0,0.3-0.2,0.4-0.2
		C75,8,75,8.3,75,8.4c0,0.6-0.3,1.7-1,2.1c-0.1-0.3-0.4-0.6-0.8-0.7c-0.1,0-0.2-0.1-0.2-0.2C73.2,9.4,73.3,9.1,73.5,9.1z"/>
	<path class="st0" d="M60.5,5.7c0,0.5,1.9,3.2,2.3,3.2c0.3,0,0.5-0.5,0.5-1c0-0.1,0-0.2-0.1-0.3C63,7.1,61,5.6,60.5,5.7
		C60.6,5.6,60.5,5.7,60.5,5.7z M49.3,4.1c0,0.3-1.2,1.3-1.6,1.3c-0.2,0-0.2-0.2-0.2-0.4c0-0.3,0.1-0.7,0.3-0.9C48,4,48.4,4,48.8,4
		C49,4,49.3,4,49.3,4.1z M63.3,5c0-0.9-2.5-2.6-2.5-3.3c0-0.1,0-0.1,0.1-0.2C61.3,1,63,0.7,63,0.3c0-0.2-0.4-0.2-0.6-0.2
		c-1.4,0-3.5,0.5-3.5,1c0,0.5,1.9,1.8,1.9,2.4c0,0.2-0.1,0.2-0.3,0.2c-0.5,0-1.7-0.6-2.2-0.6c-0.2,0-0.3,0.2-0.3,0.4
		c0,0.7,0.9,2.1,0.9,2.6c0,0,0,0.1-0.1,0.1c-0.3,0-1.6-1.5-2-1.5c-0.2,0-0.2,0.2-0.2,0.6v0.5c0,0.4,0,0.6-0.2,0.6
		c-0.4,0-0.6-1.1-1-1.1c-0.4,0-0.5,2-0.9,2c-0.4,0-0.1-2.2-0.5-2.2c-0.5,0-1,1.5-1.3,1.5c-0.1,0-0.2-0.1-0.2-0.2
		c0-0.4,0.3-1.2,0.3-1.6c0-0.2-0.1-0.3-0.2-0.3c-0.5,0-1.5,0.8-1.9,0.8c-0.1,0-0.1,0-0.1-0.1c0-0.4,1.7-1.5,1.7-2.1
		c0-0.5-2.3-0.2-2.3-0.8c0-0.5,1.6-1,1.6-1.5c0-0.4-1.9-0.6-2.7-0.6c-0.9,0-1.4,0.1-1.4,0.4c0,0.4,2.1,0.5,2.1,0.9
		c0,0.3-2.1,1.2-2.1,1.8c0,0.5,3,0,3,0.5c0,0.5-2.6,2.8-2.6,3.5c0,0.2,0.1,0.2,0.3,0.2c0.8,0,2.9-1.5,3.4-1.5c0.2,0,0.2,0.2,0.2,0.5
		c0,0.4-0.1,1-0.1,1.5c0,0.4,0.1,0.6,0.4,0.6c0.6,0,1.1-1,1.5-1c0.5,0,0.2,2.8,0.9,2.8c0.6,0,0.9-3.1,1.3-3.1c0.4,0,0.7,0.9,1.1,0.9
		c0.5,0,0.2-1.6,0.7-1.6c0.5,0,2.1,1.8,2.8,1.8c0.2,0,0.3-0.2,0.3-0.4c0-0.8-1.1-2.7-1.1-3.2c0-0.2,0-0.2,0.2-0.2
		c0.6,0,2.3,0.8,3.2,0.8C63.1,5.4,63.3,5.2,63.3,5z M61.7,2c0,0.3,1,0.9,1.4,0.9c0.3,0,0.3-0.4,0.3-0.7c0-0.5-0.2-0.5-0.6-0.5
		C62.3,1.6,61.7,1.8,61.7,2z M58.1,0.4c0-0.1-0.5-0.2-1.1-0.2c-1,0-0.9,0.8-1.6,0.8c-0.8,0-0.6-0.9-1.6-0.9c-0.6,0-1.2,0.1-1.2,0.2
		c0,0.2,0.7,0.1,0.7,0.6c0,0.5-1.5,0.7-1.5,1c0,0.1,0.1,0.2,0.3,0.2c0.3,0,0.9-0.2,1.3-0.2c0.2,0,0.4,0,0.4,0.2
		c0,0.4-0.8,1.1-0.8,1.4c0,0.1,0.1,0.1,0.2,0.1c0.3,0,0.8-0.8,1.3-0.8c0.8,0,0.3,1.7,0.7,1.7c0.5,0,0.3-1.7,0.9-1.7
		c0.5,0,0.9,1.2,1.3,1.2c0.1,0,0.2-0.1,0.2-0.2c0-0.3-0.5-1-0.5-1.4c0-0.3,0.2-0.4,0.4-0.4c0.4,0,0.8,0.2,1.1,0.2
		c0.1,0,0.2,0,0.2-0.1c0-0.4-1.4-0.8-1.4-1.2C57.3,0.6,58.1,0.6,58.1,0.4z"/>
	<path class="st0" d="M85.2,2.9c0,1.4-1,2.4-2.8,2.7c0.2,0,0.4,0,0.6,0c2.1,0,2.9-1,2.9-1.8C85.9,3.4,85.6,3,85.2,2.9z M82.7,4.4
		c0-1.1-2.6-1.4-2.6-1.6c0-0.2,1.5-0.5,2.2-0.6c-1.2-1.5-2.8-1.3-2.8-1.6c0-0.2,1.2-0.5,2.4-0.5c1,0,1.8,0.2,1.8,0.9
		c0,0.4-0.3,0.8-0.3,1.4c0,0.3,0.2,0.6,0.6,0.6c0.5,0,0.6-0.5,0.6-1c0-0.4-0.1-0.8-0.1-1c0-0.6,0.4-1.1,1.1-1.1
		c0.5,0,0.6,0.2,1.4,0.2c-0.4,0.2-0.6,0.7-0.6,0.9c0,0.6,0.4,1.1,0.4,2.4c0,2.4-2.3,3.3-5,3.3c-0.8,0-1.6-0.1-2.4-0.2
		c-0.1,0-0.2,0-0.2-0.1c0-0.2,1.1-0.3,1.1-1.3c0-0.4-0.1-0.8-0.1-0.9c0-0.1,0.1-0.1,0.1-0.1c0.2,0,0.7,0.9,1.5,0.9
		C82.1,5.2,82.7,5.1,82.7,4.4z M85.2,1c0,0.2,0.2,0.4,0.4,0.4c0.2,0,0.4-0.2,0.4-0.4c0-0.2-0.2-0.4-0.4-0.4
		C85.3,0.7,85.2,0.8,85.2,1z"/>
	<path class="st0" d="M83.8,15.3c0-0.3-0.8-0.4-0.9-1.3c0-0.1-0.1-0.4-0.2-0.4c-0.3,0-0.1,0.8-0.4,0.8c-0.7,0-0.9-1.4-1.2-1.4
		c-0.1,0-0.1,0-0.1,0.2c0,0.2,0,0.3,0,0.5c0,0.2,0,0.3-0.2,0.3c-0.4,0-0.8-1-1.1-1c-0.1,0-0.2,0-0.2,0.1c0,0.2,0.3,0.5,0.3,0.7
		c0,0.4-1,0.2-1,0.5c0,0.1,0.1,0.2,0.3,0.2c0.3,0,0.8-0.1,1.1-0.1c0.2,0,0.4,0,0.4,0.2c0,0.2-0.6,0.5-0.6,0.7c0,0.1,0.1,0.1,0.2,0.1
		c0.4,0,1.1-0.7,1.7-0.7c0.1,0,0.3,0,0.3,0.2c0,0.2-0.5,0.6-0.5,0.8c0,0.1,0,0.2,0.1,0.2c0.3,0,0.6-0.7,1.2-0.7
		c0.2,0,0.5,0.1,0.6,0.1C83.7,15.4,83.8,15.3,83.8,15.3z M84.2,22.7c0.2-0.8,0.6-1.3,1.1-2.1c-0.5-0.3-1.8-0.8-1.8-1.7
		c0-1.1,1.3-1.9,1.6-1.9c0.1,0,0.2,0.1,0.2,0.3c0,0.6-0.3,1.4-0.3,1.9c0,0.4,0.3,0.8,0.5,0.8c0.3,0,1-0.9,1-1.8
		c0-1.6-1.4-2.1-1.9-2.1c-0.4,0-1.2,0.7-2.9,0.7c-3.3,0-4-3.3-4-4.7c0-0.1,0-0.1,0-0.1c0.1,0,0.4,0.4,1.4,0.4c0.5,0,1-0.1,1.8-0.1
		c1.8,0,2.7,1.3,3.8,2.9c0.7,0.4,2.3,1.1,2.3,3.1c0,1.7-1.8,2.7-2.3,4.5c0.7-0.1,1.1-1.3,1.8-1.3c0.4,0,0.5,0.3,0.5,0.8
		c0,0.7-0.4,1.7-1.1,2.3c0-0.1,0-0.1,0-0.2c0-0.4-0.2-1-0.7-1c-0.8,0-1,0.8-1.4,1.5c-0.4-1.6-1-3-2.1-3.8c-1.1-0.9-3-0.4-3-2
		c0-0.4,0.3-1,0.3-1.5c0-0.2,0-0.3-0.1-0.4c1.5,0.6,1,1.5,1.9,2.6c0.6,0.6,2.1,1.3,3,3.9c0-0.1,0-0.3,0-0.4c0-2.3-3-4.5-3.3-5.4
		c1.7,0.2,2.1,0.6,2.9,2.9C83.6,20.9,84.2,22.1,84.2,22.7z"/>
	<path class="st0" d="M75.8,6.4c-1.1,0-1.8-0.5-1.8-0.8c0-0.1,0.1-0.2,0.2-0.2c0.3,0,1.1,0.5,1.3,0.5c0.1,0,0.1,0,0.1-0.1
		c0-0.3-0.3-0.7-0.3-1c0-0.1,0-0.1,0.1-0.1c0.4,0,1,0.2,1.4,0.2C77,4.9,77,4.8,77,4.8c0-0.3-1-1-1-1.2c0-0.2,1.2-0.5,1.2-0.8
		c0-0.3-1.7-0.1-1.7-0.4c0-0.2,0.3-0.6,0.3-0.8c0-0.1-0.1-0.1-0.2-0.1c-0.1,0-0.9,0.3-1.2,0.3c-0.2,0-0.3,0-0.3-0.2
		c0-0.4,0.6-0.7,1.5-0.7c1.5,0,2.4,1,2.4,2.8C78.2,5.9,76.6,6.4,75.8,6.4z M72.8,3.5c0-0.2-0.6-0.5-0.6-0.7c0,0,0,0,0.1,0
		c0.2,0,0.5,0.1,0.7,0.1c0.2,0,0.2-0.9,0.4-0.9c0.1,0,0.3,0.8,0.5,0.8c0.2,0,0.6-0.2,0.7-0.2c0,0,0.1,0,0.1,0c0,0.1-0.4,0.5-0.4,0.6
		c0,0.1,0.9,0.3,0.9,0.4c0,0.2-0.9,0.1-0.9,0.3c0,0.1,0.3,0.5,0.3,0.7c0,0,0,0,0,0c-0.1,0-0.6-0.2-0.7-0.2c-0.2,0-0.4,0.6-0.6,0.6
		c0,0-0.1-0.1-0.1-0.1l0-0.6c0-0.1,0-0.1-0.1-0.1c-0.2,0-0.5,0-0.6,0c-0.1,0-0.1,0-0.1,0C72.2,4.1,72.8,3.6,72.8,3.5z M72.4,6
		c0.2,0,0.3,0.6,0.3,1c0,0.2,0.1,0.2,0.1,0.2c0.2,0,0.5-0.7,0.7-0.7c0.3,0,1.1,0.8,2.4,0.8c1.9,0,3.6-1.3,3.6-3.6
		c0-2.2-1.6-3.5-3.7-3.5c-1,0-1.8,0.5-2.2,0.5c-0.2,0-0.6-0.6-0.8-0.6c-0.1,0-0.2,0.2-0.2,0.4c0,0.2,0,0.7-0.2,0.7
		c-0.4,0-1.8-1.1-1.8-0.7c0,0.4,0.9,1.4,0.9,1.7c0,0.3-0.9,0.5-0.9,0.7c0,0.3,1,0.4,1,0.8c0,0.4-1,0.8-1,1.1c0,0.3,1,0.1,1,0.4
		c0,0.3-0.8,1.4-0.8,1.7C70.9,7,70.9,7,71,7C71.3,7,72.1,6,72.4,6z"/>
	<path class="st0" d="M65.4,33c0,0.1,0,0.3-0.2,0.4c-0.2-0.3-0.6-0.5-0.9-0.5c-1.6,0-1,2.3-2.7,2.3c-0.7,0-0.8-0.1-1-0.1
		c-0.1,0-0.2,0-0.2,0.1c0,0.4,0.6,1.4,2.1,1.4c1.6,0,3.1-1,3.1-2.2c0-0.2,0-0.4-0.1-0.6c0.1-0.1,0.2-0.2,0.4-0.2
		c0.2,0,0.4,0.3,0.6,0.3c0.2,0,0.4-0.2,0.4-0.4c0-0.2-0.1-0.3-0.3-0.4c0.1-0.1,0.2-0.2,0.2-0.4c0-0.3-0.2-0.5-0.5-0.5
		c-0.1,0-0.2,0-0.3,0.2c0-0.3-0.2-0.5-0.5-0.5c-0.2,0-0.4,0.2-0.4,0.4C65.2,32.6,65.4,32.8,65.4,33z"/>
	<path class="st0" d="M57,30.2c1.2,0.3,1.8,1,2,1.8c0.1,0.8,0.3,1.4,0.6,1.7c0.4,0.4,1.1,0.8,1.8,0.8c0.6,0,1-0.2,1-0.7
		c0-0.6-0.8-1.8-1.9-1.8c-0.1,0-0.2,0-0.4,0c-0.1,0-0.3,0-0.5-0.1c-0.2-0.2-0.3-1.4-0.8-2.1c-0.5-0.8-1.1-1-1.8-1
		c-0.5,0-1.1,0.3-1.1,0.7C55.9,29.8,56,29.9,57,30.2z M61.3,33.6c-0.5,0-1.2-0.5-1.2-0.8c0-0.2,0.2-0.4,0.4-0.4
		c0.4,0,1.1,0.5,1.1,0.9C61.6,33.5,61.5,33.6,61.3,33.6z"/>
	<path class="st0" d="M59.9,21.6c0-1,2.3-1.5,2.3-2.7c0-0.2-0.1-0.6-0.2-0.8c0.8,0.4,1.4,1.2,1.4,1.8c0,1.1-1.1,1.6-1.1,2.2
		c0,0.8,1.2,0.9,1.2,1.8c0,0.8-1.1,1.7-1.1,2.7c0,0.8,0.6,1.4,1.4,1.5c-0.3,0.1-0.5,0.1-0.8,0.1c-1.5,0-3.1-1.3-3.1-2.8
		c0-0.8,0.3-1.4,0.8-1.9c0.4,0.4,0.9,0.6,1.1,0.6c0.2,0,0.4-0.1,0.4-0.3C62.1,23.4,59.9,22.9,59.9,21.6z M64.8,29.4
		c-0.5,0.2-0.7,0.2-0.7,0.7c0,0.2,0,0.5,0,0.6c0,0.2,0,0.3,0.2,0.3c0.6,0,1.4-0.9,1.4-1.7c0-0.2-0.1-0.3-0.3-0.3
		C65.3,29,65.1,29.2,64.8,29.4z M64.7,28.3c0-0.7-1.4-0.7-1.4-1.8c0-0.3,0.2-0.7,0.5-1.2c0.1,0.8,0.5,1.2,1.2,1.5
		c1.4,0.5,1.5,1.3,1.5,2.1c0,1.4-1,3.1-3.5,3.1c-2,0-3.4-1.8-3.4-3.3c0-0.4,0.1-0.9,0.4-0.9c0.2,0,0.3,0.2,0.5,0.4
		c0.7,0.7,1.4,0.9,2.5,0.9C64,29.1,64.7,28.7,64.7,28.3z"/>
	<path class="st0" d="M53.9,28.6c0,0.3-0.2,0.6-0.5,0.6c-0.3,0-0.6-0.2-0.6-0.5c0-0.3,0.2-0.6,0.5-0.6
		C53.5,28.1,53.8,28.3,53.9,28.6z M51,29.2c0.1,0.5,0.6,0.9,1.1,0.9c0.2,0,0.4-0.1,0.5-0.2c0.1,0.5,0.5,0.8,1.1,0.7
		c0.6-0.1,0.9-0.5,0.9-1.1c0-0.2,0-0.2-0.1-0.4c0,0,0.1,0,0.1,0c0.6-0.1,0.9-0.6,0.9-1.1c-0.1-0.6-0.6-1-1.1-0.9
		c-0.2,0-0.4,0.1-0.5,0.2c-0.1-0.5-0.6-0.9-1.2-0.8c-0.5,0.1-0.9,0.5-0.8,1.1c0,0.1,0,0.2,0.1,0.3c0,0-0.1,0-0.2,0
		C51.4,28.2,50.9,28.6,51,29.2z"/>
</g>
</svg>
