<?xml version="1.0" encoding="UTF-8"?>
<svg width="1650px" height="650px" viewBox="0 0 1650 650" version="1.1" xmlns="http://www.w3.org/2000/svg" xmlns:xlink="http://www.w3.org/1999/xlink">
    <!-- Generator: Sketch 48.2 (47327) - http://www.bohemiancoding.com/sketch -->
    <title>Artboard</title>
    <desc>Created with Sketch.</desc>
    <defs></defs>
    <g id="Page-1" stroke="none" stroke-width="1" fill="none" fill-rule="evenodd">
        <g id="Artboard" fill="#FF133E" fill-opacity="0.8" fill-rule="nonzero">
            <path d="M373.165721,462.145702 C370.605736,459.424471 367.485755,457.263493 364.045775,455.742806 C360.605796,454.222118 356.925818,453.501792 353.165841,453.501792 C349.405863,453.421756 345.725885,454.222118 342.285906,455.662769 C338.845927,457.183457 335.725946,459.344435 333.165961,462.065665 C330.525977,464.70686 328.445989,467.828272 327.085998,471.269828 C325.726006,474.791421 325.00601,478.473086 325.00601,482.154751 C324.92601,485.916453 325.646006,489.598118 327.085998,493.039674 C328.525989,496.481231 330.605976,499.602643 333.24596,502.243837 C338.424426,507.749086 345.691204,510.802532 353.24584,510.647638 C360.778394,510.689074 368.001737,507.653879 373.24572,502.243837 C375.965704,499.682679 378.045691,496.561267 379.485683,493.119711 C380.925674,489.678154 381.64567,485.996489 381.64567,482.234788 C381.64567,478.473086 380.925674,474.791421 379.485683,471.349864 C377.965692,467.828272 375.885704,464.70686 373.165721,462.145702 Z M707.963708,397.156308 C707.563711,415.084416 708.443706,433.092561 710.523693,450.940634 L709.563699,450.940634 C707.323712,446.538643 702.363742,438.37495 694.763788,426.449557 L512.364884,140 L457.005217,140 L457.005217,505.685394 L499.564961,505.685394 L499.564961,241.325828 C500.044958,224.598263 499.324962,207.870697 497.564973,191.143131 L499.164963,191.143131 C502.204945,199.146751 506.124921,206.830226 510.764894,214.033484 L698.123768,505.685394 L750.523453,505.685394 L750.523453,140 L707.963708,140 L707.963708,397.156308 Z M1039.08172,465.507222 L888.682622,465.507222 L888.682622,338.809919 L1020.28183,338.809919 L1020.28183,300.232471 L888.682622,300.232471 L888.682622,178.73752 L1029.88177,178.73752 L1029.88177,140 L845.082884,140 L845.082884,505.685394 L1038.84172,505.685394 L1039.08172,465.507222 Z M1071.64152,140 L1071.64152,178.73752 L1176.44089,178.73752 L1176.44089,505.685394 L1219.00064,505.685394 L1219.00064,178.73752 L1325,178.73752 L1325,140 L1071.64152,140 Z" id="Shape"></path>
        </g>
        <g id="angular" transform="translate(796.000000, -354.000000)" opacity="0.8">
            <g id="Group"></g>
        </g>
    </g>
</svg>