<?xml version="1.0" encoding="utf-8"?>
<!-- Generator: Adobe Illustrator 24.0.1, SVG Export Plug-In . SVG Version: 6.00 Build 0)  -->
<svg version="1.1" id="Layer_1" xmlns="http://www.w3.org/2000/svg" xmlns:xlink="http://www.w3.org/1999/xlink" x="0px" y="0px"
	 viewBox="0 0 216 80" style="enable-background:new 0 0 216 80;" xml:space="preserve">
<style type="text/css">
	.st0{opacity:0.8;}
	.st1{fill:#FF133E;}
	.st2{fill-rule:evenodd;clip-rule:evenodd;fill:#FF133E;}
</style>
<g class="st0">
	<path class="st1" d="M107.2,79.8c-0.4,0-0.9-0.1-1.2-0.3l-3.9-2.3c-0.6-0.3-0.3-0.4-0.1-0.5c0.8-0.3,0.9-0.3,1.8-0.8
		c0.1,0,0.2,0,0.3,0l3,1.8c0.1,0.1,0.3,0.1,0.4,0l11.8-6.8c0.1-0.1,0.2-0.2,0.2-0.3V57c0-0.1-0.1-0.3-0.2-0.3l-11.8-6.8
		c-0.1-0.1-0.3-0.1-0.4,0l-11.8,6.8c-0.1,0.1-0.2,0.2-0.2,0.3v13.5c0,0.1,0.1,0.3,0.2,0.3l3.2,1.9c1.8,0.9,2.8-0.2,2.8-1.2V58.2
		c0-0.2,0.2-0.3,0.3-0.3h1.5c0.2,0,0.3,0.1,0.3,0.3v13.4c0,2.3-1.3,3.7-3.5,3.7c-0.7,0-1.2,0-2.7-0.7l-3.1-1.8
		c-0.8-0.4-1.2-1.3-1.2-2.1V57c0-0.9,0.5-1.7,1.2-2.1l11.8-6.8c0.7-0.4,1.7-0.4,2.5,0l11.8,6.8c0.8,0.4,1.2,1.3,1.2,2.1v13.5
		c0,0.9-0.5,1.7-1.2,2.1l-11.8,6.8C108.1,79.7,107.7,79.8,107.2,79.8"/>
	<path class="st1" d="M110.9,70.5c-5.2,0-6.3-2.4-6.3-4.3c0-0.2,0.2-0.3,0.3-0.3h1.5c0.2,0,0.3,0.1,0.3,0.3c0.2,1.5,0.9,2.3,4,2.3
		c2.5,0,3.6-0.6,3.6-1.9c0-0.8-0.3-1.3-4.2-1.7c-3.2-0.3-5.2-1-5.2-3.6c0-2.4,2-3.8,5.4-3.8c3.8,0,5.7,1.3,5.9,4.1
		c0,0.1,0,0.2-0.1,0.3c-0.1,0.1-0.2,0.1-0.3,0.1h-1.5c-0.2,0-0.3-0.1-0.3-0.3c-0.4-1.6-1.3-2.1-3.7-2.1c-2.7,0-3,0.9-3,1.6
		c0,0.9,0.4,1.1,4,1.6c3.6,0.5,5.4,1.2,5.4,3.7C116.8,69,114.6,70.5,110.9,70.5L110.9,70.5z M125.3,56.1h0.4c0.3,0,0.4-0.2,0.4-0.4
		c0-0.3-0.2-0.3-0.4-0.3h-0.4L125.3,56.1z M124.8,55h0.9c0.3,0,0.9,0,0.9,0.7c0,0.5-0.3,0.6-0.5,0.6c0.4,0,0.4,0.3,0.4,0.6
		c0,0.2,0.1,0.6,0.1,0.7h-0.5c0-0.1-0.1-0.8-0.1-0.8c0-0.1-0.1-0.2-0.3-0.2h-0.4v1h-0.5V55z M123.8,56.3c0,1.1,0.9,1.9,1.9,1.9
		c1.1,0,1.9-0.9,1.9-1.9c0-1.1-0.9-1.9-1.9-1.9C124.6,54.4,123.8,55.2,123.8,56.3L123.8,56.3z M127.9,56.3c0,1.2-1,2.3-2.3,2.3
		c-1.2,0-2.3-1-2.3-2.3c0-1.3,1.1-2.3,2.3-2.3C126.9,54,127.9,55,127.9,56.3"/>
	<path class="st2" d="M70.6,26.8c0-0.5-0.3-1-0.8-1.3l-12.5-7.2c-0.2-0.1-0.4-0.2-0.7-0.2h-0.1c-0.2,0-0.5,0.1-0.7,0.2l-12.5,7.2
		c-0.5,0.3-0.8,0.8-0.8,1.3l0,19.3c0,0.3,0.1,0.5,0.4,0.6c0.2,0.1,0.5,0.1,0.8,0l7.5-4.2c0.5-0.3,0.8-0.8,0.8-1.3v-9
		c0-0.5,0.3-1,0.8-1.3l3.2-1.8c0.2-0.1,0.5-0.2,0.8-0.2c0.3,0,0.5,0.1,0.8,0.2l3.2,1.8c0.5,0.3,0.8,0.8,0.8,1.3v9
		c0,0.5,0.3,1,0.8,1.3l7.5,4.2c0.2,0.1,0.5,0.1,0.8,0c0.2-0.1,0.4-0.4,0.4-0.6L70.6,26.8z M129.8,36.8c0,0.1-0.1,0.3-0.2,0.3
		l-4.3,2.5c-0.1,0.1-0.3,0.1-0.4,0l-4.3-2.5c-0.1-0.1-0.2-0.2-0.2-0.3v-4.9c0-0.1,0.1-0.3,0.2-0.3l4.3-2.5c0.1-0.1,0.3-0.1,0.4,0
		l4.3,2.5c0.1,0.1,0.2,0.2,0.2,0.3L129.8,36.8z M131,0.3c-0.2-0.1-0.5-0.1-0.8,0c-0.2,0.1-0.4,0.4-0.4,0.6v19.1
		c0,0.2-0.1,0.4-0.3,0.5c-0.2,0.1-0.4,0.1-0.5,0l-3.1-1.8c-0.5-0.3-1-0.3-1.5,0l-12.5,7.2c-0.5,0.3-0.8,0.8-0.8,1.3v14.4
		c0,0.5,0.3,1,0.8,1.3l12.5,7.2c0.5,0.3,1,0.3,1.5,0l12.5-7.2c0.5-0.3,0.8-0.8,0.8-1.3V5.8c0-0.5-0.3-1-0.8-1.3L131,0.3z
		 M172.7,31.8c0.5-0.3,0.8-0.8,0.8-1.3V27c0-0.5-0.3-1-0.8-1.3l-12.5-7.2c-0.5-0.3-1-0.3-1.5,0l-12.5,7.2c-0.5,0.3-0.8,0.8-0.8,1.3
		v14.4c0,0.5,0.3,1,0.8,1.3l12.5,7c0.5,0.3,1,0.3,1.5,0l7.5-4.2c0.2-0.1,0.4-0.4,0.4-0.7c0-0.3-0.1-0.5-0.4-0.7l-12.6-7.2
		c-0.2-0.1-0.4-0.4-0.4-0.6v-4.5c0-0.3,0.1-0.5,0.4-0.7L159,29c0.2-0.1,0.5-0.1,0.8,0l3.9,2.2c0.2,0.1,0.4,0.4,0.4,0.6v3.5
		c0,0.3,0.1,0.5,0.4,0.7c0.2,0.1,0.5,0.1,0.8,0L172.7,31.8z"/>
	<path class="st2" d="M159.3,31.1c0.1-0.1,0.2-0.1,0.3,0l2.4,1.4c0.1,0.1,0.1,0.1,0.1,0.2v2.8c0,0.1-0.1,0.2-0.1,0.2l-2.4,1.4
		c-0.1,0.1-0.2,0.1-0.3,0l-2.4-1.4c-0.1-0.1-0.1-0.1-0.1-0.2v-2.8c0-0.1,0.1-0.2,0.1-0.2L159.3,31.1z"/>
	<path class="st2" d="M90.2,17.9c0.5-0.3,1.1-0.3,1.6,0l13,7.5c0.5,0.3,0.8,0.8,0.8,1.4v14.9c0,0.6-0.3,1.1-0.8,1.4l-13,7.5
		c-0.5,0.3-1.1,0.3-1.6,0l-13-7.5c-0.5-0.3-0.8-0.8-0.8-1.4V26.7c0-0.6,0.3-1.1,0.8-1.4L90.2,17.9z"/>
</g>
</svg>
