<?xml version="1.0" encoding="utf-8"?>
<!-- Generator: Adobe Illustrator 24.0.1, SVG Export Plug-In . SVG Version: 6.00 Build 0)  -->
<svg version="1.1" id="Layer_1" xmlns="http://www.w3.org/2000/svg" xmlns:xlink="http://www.w3.org/1999/xlink" x="0px" y="0px"
	 viewBox="0 0 216 80" style="enable-background:new 0 0 216 80;" xml:space="preserve">
<style type="text/css">
	.st0{opacity:0.8;}
	.st1{fill:#FF133E;}
</style>
<g class="st0">
	<path class="st1" d="M146.3,40c0-5.1-6.4-9.9-16.1-12.9c2.2-9.9,1.2-17.8-3.2-20.4c-1-0.6-2.2-0.9-3.5-0.9v3.5
		c0.7,0,1.3,0.1,1.8,0.4c2.1,1.2,3,5.9,2.3,11.8c-0.2,1.5-0.5,3-0.8,4.6c-3.1-0.7-6.4-1.3-9.9-1.7c-2.1-2.9-4.3-5.5-6.5-7.8
		c5.1-4.7,9.9-7.3,13.1-7.3V5.9c-4.3,0-9.9,3.1-15.6,8.4C102.3,9,96.7,6,92.4,6v3.5c3.2,0,8,2.6,13.1,7.3c-2.2,2.3-4.4,4.9-6.4,7.8
		c-3.5,0.4-6.9,1-9.9,1.7c-0.4-1.6-0.6-3.1-0.8-4.5c-0.7-6,0.2-10.6,2.3-11.8c0.5-0.3,1.1-0.4,1.8-0.4V6c-1.3,0-2.5,0.3-3.5,0.9
		c-4.4,2.5-5.4,10.4-3.1,20.3c-9.7,3-16,7.8-16,12.8c0,5.1,6.4,9.9,16.1,12.9c-2.2,9.9-1.2,17.8,3.2,20.4c1,0.6,2.2,0.9,3.5,0.9
		c4.3,0,9.9-3.1,15.6-8.4c5.7,5.3,11.3,8.3,15.6,8.3c1.3,0,2.5-0.3,3.5-0.9c4.4-2.5,5.4-10.4,3.1-20.3C140,49.9,146.3,45.1,146.3,40
		z M126,29.6c-0.6,2-1.3,4.1-2.1,6.2c-0.6-1.2-1.3-2.5-2-3.7c-0.7-1.2-1.5-2.5-2.2-3.7C121.8,28.7,123.9,29.1,126,29.6z M118.8,46.2
		c-1.2,2.1-2.5,4.1-3.8,6c-2.3,0.2-4.7,0.3-7.1,0.3c-2.4,0-4.7-0.1-7-0.3c-1.3-1.9-2.6-3.8-3.8-5.9c-1.2-2-2.3-4.1-3.2-6.2
		c1-2.1,2.1-4.2,3.2-6.2c1.2-2.1,2.5-4.1,3.8-6c2.3-0.2,4.7-0.3,7.1-0.3c2.4,0,4.7,0.1,7,0.3c1.3,1.9,2.6,3.8,3.8,5.9
		c1.2,2,2.3,4.1,3.2,6.2C121.1,42.1,120,44.2,118.8,46.2z M123.9,44.2c0.8,2.1,1.6,4.2,2.2,6.2c-2,0.5-4.2,0.9-6.4,1.2
		c0.8-1.2,1.5-2.4,2.2-3.7C122.5,46.7,123.2,45.4,123.9,44.2z M108,60.8c-1.5-1.5-2.9-3.2-4.3-5c1.4,0.1,2.8,0.1,4.3,0.1
		c1.5,0,2.9,0,4.3-0.1C110.9,57.7,109.5,59.3,108,60.8z M96.4,51.7c-2.2-0.3-4.4-0.7-6.4-1.2c0.6-2,1.3-4.1,2.1-6.2
		c0.6,1.2,1.3,2.5,2,3.7C94.9,49.2,95.7,50.5,96.4,51.7z M108,19.2c1.5,1.5,2.9,3.2,4.3,5c-1.4-0.1-2.8-0.1-4.3-0.1
		c-1.5,0-2.9,0-4.3,0.1C105.1,22.3,106.5,20.7,108,19.2z M96.4,28.4c-0.8,1.2-1.5,2.4-2.2,3.7c-0.7,1.2-1.4,2.5-2,3.7
		c-0.8-2.1-1.6-4.2-2.2-6.2C92,29.1,94.2,28.7,96.4,28.4z M82.3,47.9c-5.5-2.4-9.1-5.4-9.1-7.9c0-2.5,3.6-5.6,9.1-7.9
		c1.3-0.6,2.8-1.1,4.3-1.6c0.9,3.1,2.1,6.2,3.5,9.5c-1.4,3.2-2.6,6.4-3.5,9.5C85.1,49,83.6,48.5,82.3,47.9z M90.7,70.2
		c-2.1-1.2-3-5.9-2.3-11.8c0.2-1.5,0.5-3,0.8-4.6c3.1,0.7,6.4,1.3,9.9,1.7c2.1,2.9,4.3,5.5,6.5,7.8c-5.1,4.7-9.9,7.3-13.1,7.3
		C91.7,70.6,91.1,70.5,90.7,70.2z M127.7,58.3c0.7,6-0.2,10.6-2.3,11.8c-0.5,0.3-1.1,0.4-1.8,0.4c-3.2,0-8-2.6-13.1-7.3
		c2.2-2.3,4.4-4.9,6.4-7.8c3.5-0.4,6.9-1,9.9-1.7C127.2,55.4,127.5,56.9,127.7,58.3z M133.7,47.9c-1.3,0.6-2.8,1.1-4.3,1.6
		c-0.9-3.1-2.1-6.2-3.5-9.5c1.4-3.2,2.6-6.4,3.5-9.5c1.5,0.5,3,1,4.4,1.6c5.5,2.4,9.1,5.4,9.1,7.9C142.8,42.5,139.2,45.6,133.7,47.9
		z"/>
	<path class="st1" d="M108,47.1c3.9,0,7.1-3.2,7.1-7.1s-3.2-7.1-7.1-7.1s-7.1,3.2-7.1,7.1S104,47.1,108,47.1z"/>
</g>
</svg>
